<?xml version="1.0" encoding="utf-8"?>
<!-- Generator: Adobe Illustrator 27.2.0, SVG Export Plug-In . SVG Version: 6.00 Build 0)  -->
<svg version="1.1" id="Layer_1" xmlns="http://www.w3.org/2000/svg" xmlns:xlink="http://www.w3.org/1999/xlink" x="0px" y="0px"
	 viewBox="0 0 728.34 113.15" style="enable-background:new 0 0 728.34 113.15;" xml:space="preserve">
<style type="text/css">
	.st0{fill:#ED2224;}
	.st1{fill:#FFFFFF;}
	.st2{fill:#010101;}
</style>
<rect class="st0" width="261.4" height="113.15"/>
<g>
	<path class="st1" d="M20.14,20.46h21.5l16.5,54.4h0.2l15.4-54.4h22v74h-15.7v-50.5h-0.2c-1.1,6.4-2.5,11.1-4.1,16.5l-11.1,34h-14.4
		l-11-34c-1.7-5.6-2.7-8.8-4.3-17.3h-0.2v51.3h-14.6V20.46z"/>
	<path class="st1" d="M107.44,57.36c0-25.7,14.9-38.3,33.6-38.3s26.8,10,30,23.3l-15.4,4.5c-2.4-8.5-6-14.3-14.7-14.3
		c-11.2,0-17.2,9.5-17.2,24.8c0,15.6,6.2,25.4,17.4,25.4c8.7,0,13-5.5,15.6-15.6l15.3,3.4c-3.6,14.9-12.4,25.3-31,25.3
		C121.74,95.86,107.44,83.46,107.44,57.36z"/>
	<path class="st1" d="M181.64,66.16v-45.7h16.3v45.3c0,10.7,4.1,16.7,13.8,16.7c9.6,0,13.6-5.9,13.6-16.7v-45.3h16v45.6
		c0,18.2-9.2,29.6-29.8,29.6S181.64,84.26,181.64,66.16z"/>
	<path class="st2" d="M282.24,20.46h27.8c18.2,0,29.1,6.5,29.1,22.9c0,11.7-5.5,18.1-15.4,21.1l16.5,30h-17.2l-15.4-27.9h-9.4v27.9
		h-16V20.46z M309.34,53.96c9.4,0,13.9-2.7,13.9-10.2c0-7.3-4.5-10-13.9-10h-11.1v20.2H309.34z"/>
	<path class="st2" d="M372.04,20.16h15.5l26.2,74.31h-16.5l-5.5-16.5h-25.2l-5.7,16.5h-15L372.04,20.16z M387.94,66.16l-8.5-25.2
		h-0.2l-8.7,25.2H387.94z"/>
	<path class="st2" d="M423.04,20.46h16.3l31,47.2h0.2v-47.2h15v74h-15l-32.3-47.6h-0.2v47.6h-15V20.46z"/>
	<path class="st2" d="M500.73,20.46h22.7c22.6,0,39.6,9.6,39.6,36.6c0,27.8-17.3,37.4-39.6,37.4h-22.7V20.46z M524.54,81.26
		c16.1,0,22.2-7.2,22.2-24c0-15.8-6.2-23.2-22.4-23.2h-7.4v47.2H524.54z"/>
	<path class="st2" d="M571.23,57.46c0-26,17-38.4,34.9-38.4c17.8,0,34.8,12.4,34.8,38.4c0,26-17,38.4-34.8,38.4
		C588.23,95.86,571.23,83.46,571.23,57.46z M624.74,57.46c0-15.5-7.2-24.9-18.6-24.9c-11.5,0-18.6,9.4-18.6,24.9s7.1,25.3,18.6,25.3
		C617.54,82.76,624.74,72.96,624.74,57.46z"/>
	<path class="st2" d="M652.73,20.46h21.5l16.5,54.4h0.2l15.4-54.4h22v74h-15.7v-50.5h-0.2c-1.1,6.4-2.5,11.1-4.1,16.5l-11.1,34
		h-14.4l-11-34c-1.7-5.6-2.7-8.8-4.3-17.3h-0.2v51.3h-14.6V20.46z"/>
</g>
</svg>
